<svg width="13" height="13" viewBox="0 0 13 13" fill="none" xmlns="http://www.w3.org/2000/svg">
<path d="M11.8549 2.99859C11.809 2.911 11.74 2.83764 11.6554 2.78646C11.5708 2.73528 11.4739 2.70824 11.375 2.70825H1.62498C1.52631 2.70866 1.42962 2.73596 1.34531 2.78721C1.26099 2.83846 1.19224 2.91172 1.14646 2.99912C1.10067 3.08652 1.07957 3.18475 1.08543 3.28325C1.09129 3.38174 1.1239 3.47678 1.17973 3.55813L6.05473 10.5998C6.10442 10.672 6.17092 10.731 6.24848 10.7717C6.32604 10.8125 6.41236 10.8338 6.49998 10.8338C6.58761 10.8338 6.67392 10.8125 6.75148 10.7717C6.82905 10.731 6.89554 10.672 6.94523 10.5998L11.8202 3.55813C11.8765 3.47689 11.9095 3.38182 11.9156 3.28319C11.9217 3.18456 11.9007 3.08614 11.8549 2.99859ZM6.49998 9.33988L2.65848 3.79159H10.3415L6.49998 9.33988Z" fill="black"/>
</svg>
