<svg width="25" height="24" viewBox="0 0 25 24" fill="none" xmlns="http://www.w3.org/2000/svg">
<path d="M7.83984 11H9.83984V13H7.83984V11ZM11.8398 11H13.8398V13H11.8398V11ZM15.8398 11H17.8398V13H15.8398V11ZM7.83984 15H9.83984V17H7.83984V15ZM11.8398 15H13.8398V17H11.8398V15ZM15.8398 15H17.8398V17H15.8398V15Z" fill="black"/>
<path d="M21.8398 5V4H17.8398V3H15.8398V4H9.83984V3H7.83984V4H3.83984V5H2.83984V21H3.83984V22H21.8398V21H22.8398V5H21.8398ZM20.8398 19H19.8398V20H5.83984V19H4.83984V7H5.83984V6H7.83984V8H9.83984V6H15.8398V8H17.8398V6H19.8398V7H20.8398V19Z" fill="black"/>
</svg>
