<svg width="24" height="22" viewBox="0 0 24 22" fill="none" xmlns="http://www.w3.org/2000/svg">
<path d="M5.78946 9.09473H8.10525V11.3684H5.78946V9.09473ZM10.421 9.09473H12.7368V11.3684H10.421V9.09473ZM15.0526 9.09473H17.3684V11.3684H15.0526V9.09473ZM5.78946 13.6421H8.10525V15.9158H5.78946V13.6421ZM10.421 13.6421H12.7368V15.9158H10.421V13.6421ZM15.0526 13.6421H17.3684V15.9158H15.0526V13.6421Z" fill="white"/>
<path d="M22 2.27368V1.13684H17.3684V0H15.0526V1.13684H8.10526V0H5.78947V1.13684H1.15789V2.27368H0V20.4632H1.15789V21.6H22V20.4632H23.1579V2.27368H22ZM20.8421 18.1895H19.6842V19.3263H3.47368V18.1895H2.31579V4.54737H3.47368V3.41053H5.78947V5.68421H8.10526V3.41053H15.0526V5.68421H17.3684V3.41053H19.6842V4.54737H20.8421V18.1895Z" fill="white"/>
</svg>
