<svg width="15" height="15" viewBox="0 0 15 15" fill="none" xmlns="http://www.w3.org/2000/svg">
<path d="M12.5757 11.1855C12.2994 10.531 11.8984 9.93648 11.3951 9.43506C10.8933 8.93218 10.2988 8.53125 9.64457 8.25439C9.63871 8.25146 9.63285 8.25 9.62699 8.24707C10.5396 7.58789 11.1329 6.51416 11.1329 5.30273C11.1329 3.2959 9.50687 1.66992 7.50004 1.66992C5.4932 1.66992 3.86722 3.2959 3.86722 5.30273C3.86722 6.51416 4.46049 7.58789 5.37308 8.24853C5.36722 8.25146 5.36137 8.25293 5.35551 8.25586C4.69926 8.53271 4.11039 8.92969 3.60502 9.43652C3.10214 9.93832 2.70121 10.5328 2.42435 11.187C2.15236 11.8275 2.00567 12.5142 1.99222 13.21C1.99183 13.2256 1.99458 13.2411 2.00029 13.2557C2.006 13.2703 2.01457 13.2835 2.02549 13.2947C2.03642 13.3059 2.04947 13.3148 2.06388 13.3209C2.07829 13.327 2.09377 13.3301 2.10941 13.3301H2.98832C3.05277 13.3301 3.10404 13.2788 3.10551 13.2158C3.1348 12.085 3.5889 11.0259 4.39164 10.2231C5.2222 9.39258 6.32523 8.93555 7.50004 8.93555C8.67484 8.93555 9.77787 9.39258 10.6084 10.2231C11.4112 11.0259 11.8653 12.085 11.8946 13.2158C11.896 13.2803 11.9473 13.3301 12.0118 13.3301H12.8907C12.9063 13.3301 12.9218 13.327 12.9362 13.3209C12.9506 13.3148 12.9637 13.3059 12.9746 13.2947C12.9855 13.2835 12.9941 13.2703 12.9998 13.2557C13.0055 13.2411 13.0082 13.2256 13.0079 13.21C12.9932 12.5098 12.8482 11.8286 12.5757 11.1855ZM7.50004 7.82227C6.82767 7.82227 6.19486 7.56006 5.71879 7.08398C5.24271 6.60791 4.98051 5.9751 4.98051 5.30273C4.98051 4.63037 5.24271 3.99756 5.71879 3.52148C6.19486 3.04541 6.82767 2.7832 7.50004 2.7832C8.1724 2.7832 8.80521 3.04541 9.28129 3.52148C9.75736 3.99756 10.0196 4.63037 10.0196 5.30273C10.0196 5.9751 9.75736 6.60791 9.28129 7.08398C8.80521 7.56006 8.1724 7.82227 7.50004 7.82227Z" fill="black"/>
</svg>
