<svg width="31" height="31" viewBox="0 0 31 31" fill="none" xmlns="http://www.w3.org/2000/svg">
<path d="M15.5 1V4.625M25.7531 5.24689L23.1898 7.81017M30 15.5H26.375M25.7531 25.7531L23.1898 23.1898M15.5 26.375V30M7.81017 23.1898L5.24689 25.7531M4.625 15.5H1M7.81017 7.81017L5.24689 5.24689M21.5417 15.5C21.5417 17.1024 20.9051 18.6391 19.7721 19.7721C18.6391 20.9051 17.1024 21.5417 15.5 21.5417C13.8977 21.5417 12.3609 20.9051 11.2279 19.7721C10.0949 18.6391 9.45833 17.1024 9.45833 15.5C9.45833 13.8977 10.0949 12.3609 11.2279 11.2279C12.3609 10.0949 13.8977 9.45833 15.5 9.45833C17.1024 9.45833 18.6391 10.0949 19.7721 11.2279C20.9051 12.3609 21.5417 13.8977 21.5417 15.5Z" stroke="white" stroke-width="1.5" stroke-linecap="round" stroke-linejoin="round"/>
</svg>
