<svg width="21" height="21" viewBox="0 0 21 21" fill="none" xmlns="http://www.w3.org/2000/svg">
<path fill-rule="evenodd" clip-rule="evenodd" d="M19.2432 0.000186486C19.2439 0.000399102 19.2445 0.000733387 19.2458 0.00197871L20.998 1.75424C20.9993 1.75548 20.9996 1.75606 20.9998 1.75679C21.0001 1.75746 21.0001 1.75821 20.9998 1.75888C20.9996 1.75958 20.9993 1.76016 20.998 1.7614L12.2594 10.5L20.998 19.2386C20.9993 19.2398 20.9996 19.2404 20.9998 19.2411C21 19.2418 21 19.2426 20.9998 19.2432C20.9996 19.2439 20.9993 19.2445 20.998 19.2458L19.2458 20.998C19.2445 20.9993 19.2439 20.9996 19.2432 20.9998C19.2425 21.0001 19.2418 21.0001 19.2411 20.9998C19.2404 20.9996 19.2398 20.9993 19.2386 20.998L10.5 12.2594L1.7614 20.998C1.76019 20.9993 1.75958 20.9996 1.75888 20.9998C1.75819 21 1.75745 21 1.75676 20.9998C1.75609 20.9996 1.75548 20.9993 1.75424 20.998L0.00197871 19.2458C0.000733387 19.2445 0.000399102 19.2439 0.000186486 19.2432C-6.21621e-05 19.2425 -6.21621e-05 19.2418 0.000186486 19.2411C0.000399102 19.2404 0.000733387 19.2398 0.00197871 19.2386L8.74055 10.5L0.00197871 1.7614C0.000733387 1.76019 0.000399102 1.75958 0.000186486 1.75888C-2.48173e-05 1.75819 -2.48173e-05 1.75745 0.000186486 1.75676C0.000399102 1.75609 0.000733387 1.75548 0.00197871 1.75424L1.75424 0.00197871C1.75548 0.000733387 1.75606 0.000399102 1.75679 0.000186486C1.75746 -6.21621e-05 1.75821 -6.21621e-05 1.75888 0.000186486C1.75958 0.000399102 1.76016 0.000733387 1.7614 0.00197871L10.5 8.74055L19.2386 0.00197871C19.2398 0.000733387 19.2404 0.000399102 19.2411 0.000186486C19.2418 -2.48173e-05 19.2426 -2.48173e-05 19.2432 0.000186486H19.2432Z" fill="#7D68F5"/>
</svg>
